<svg xmlns="http://www.w3.org/2000/svg">
	<symbol id="pin" viewBox="0 0 30 30">
		<path d="M10.758 11.965a.503.503 0 0 1 0-.708l1.914-1.914c.197-.197.578-.353.856-.353h3.74l3.035-3.036-.357-.357a1.503 1.503 0 0 1 .004-2.118 1.495 1.495 0 0 1 2.119-.002l4.954 4.954a1.5 1.5 0 0 1-.002 2.12c-.59.59-1.534.587-2.118.003l-.357-.357-3.036 3.035v3.74c0 .275-.158.661-.353.856l-1.914 1.915a.498.498 0 0 1-.708 0l-3.207-3.208-9.155 8.525a.527.527 0 0 1-.719-.014.52.52 0 0 1-.014-.719l8.525-9.155-3.207-3.207zm14.145-2.826l.7.7c.197.198.521.194.71.004a.505.505 0 0 0 0-.707l-4.949-4.95a.505.505 0 0 0-.707 0 .495.495 0 0 0 .003.71l.7.701a.5.5 0 0 1 0 .715l-3.32 3.32a1.406 1.406 0 0 1-.861.358h-3.535a.582.582 0 0 0-.343.138l-1.483 1.483 7.071 7.071 1.483-1.483a.548.548 0 0 0 .138-.343v-3.535c0-.278.154-.656.359-.861l3.319-3.32a.498.498 0 0 1 .715 0z" fill="#000" fill-rule="evenodd"/>
	</symbol>
</svg>